<?xml version="1.0" standalone="no"?>
<!DOCTYPE svg PUBLIC "-//W3C//DTD SVG 20010904//EN"
 "http://www.w3.org/TR/2001/REC-SVG-20010904/DTD/svg10.dtd">
<svg version="1.0" xmlns="http://www.w3.org/2000/svg"
 width="488.000000pt" height="488.000000pt" viewBox="0 0 488.000000 488.000000"
 preserveAspectRatio="xMidYMid meet">
<metadata>
Created by potrace 1.11, written by Peter Selinger 2001-2013
</metadata>
<g transform="translate(0.000000,488.000000) scale(0.100000,-0.100000)"
fill="#000000" stroke="none">
<path d="M2375 4671 c-3 -2 -88 -5 -190 -7 -102 -2 -195 -6 -207 -10 -12 -4
-56 -8 -98 -10 -41 -1 -113 -7 -160 -13 -47 -6 -105 -13 -130 -16 -25 -3 -72
-7 -104 -10 -33 -2 -82 -13 -110 -23 -121 -47 -273 -91 -366 -107 -19 -3 -39
-11 -45 -18 -5 -7 -19 -13 -30 -15 -11 -2 -37 -15 -59 -30 -21 -15 -62 -40
-91 -57 -29 -16 -88 -54 -130 -82 -43 -29 -82 -53 -87 -53 -33 0 -228 -192
-228 -224 0 -13 -65 -105 -82 -116 -13 -10 -49 -122 -55 -170 -9 -74 -1 -198
13 -221 3 -5 -5 -9 -18 -9 -22 0 -42 -31 -62 -92 -3 -11 -11 -15 -21 -12 -8 4
-15 1 -15 -6 0 -7 -7 -10 -17 -6 -34 13 -45 -54 -18 -116 14 -34 13 -36 -10
-46 -14 -7 -22 -17 -19 -25 2 -7 -4 -24 -16 -37 -24 -27 -25 -34 -6 -49 8 -7
17 -23 20 -36 4 -14 11 -25 16 -25 5 0 8 -18 8 -40 0 -40 -18 -70 -41 -70 -6
0 6 -17 27 -39 41 -42 63 -44 101 -11 44 38 79 27 60 -17 -10 -24 -16 -45 -17
-63 0 -8 -6 -22 -14 -30 -7 -8 -16 -27 -19 -42 -9 -36 -20 -35 -56 3 l-29 31
-15 -36 c-30 -72 -26 -98 25 -147 14 -14 36 -41 48 -60 l21 -35 -22 -22 -21
-22 21 0 c25 0 40 -18 21 -25 -12 -5 -14 -32 -9 -135 1 -22 43 -57 101 -87 3
-2 7 8 8 23 3 33 27 74 59 98 25 18 25 18 14 -2 -6 -12 -18 -25 -27 -30 -8 -4
-22 -35 -30 -68 -21 -80 -30 -93 -54 -87 -37 10 -59 -83 -29 -123 14 -18 17
-58 6 -79 -6 -11 -12 -66 -13 -122 -1 -80 3 -121 22 -190 13 -48 21 -89 19
-91 -2 -2 0 -15 5 -28 10 -24 15 -48 26 -111 7 -44 49 -146 80 -195 49 -76
161 -176 257 -228 20 -11 37 -25 37 -30 0 -6 3 -10 8 -9 17 3 51 -14 46 -22
-3 -5 2 -6 10 -3 9 3 16 1 16 -5 0 -6 7 -11 16 -11 9 0 12 -5 8 -12 -4 -6 -3
-8 3 -5 13 8 154 -51 171 -72 7 -9 11 -10 7 -3 -7 13 17 17 29 5 8 -8 12 -9
40 -12 18 -1 27 -36 12 -52 -8 -10 -7 -10 7 0 13 11 20 11 32 1 8 -7 12 -16 9
-21 -3 -5 2 -6 11 -3 13 5 10 11 -14 28 -34 24 -42 43 -11 26 11 -6 26 -8 32
-4 7 5 9 2 6 -7 -5 -12 1 -14 23 -11 16 2 29 0 29 -5 0 -5 15 -10 32 -11 18
-2 37 -7 42 -12 6 -6 21 -10 34 -10 13 0 21 -4 17 -10 -4 -6 -15 -6 -30 0 -14
5 -33 7 -42 4 -15 -5 -16 -4 -3 5 12 8 11 10 -7 8 -12 0 -19 -5 -17 -9 3 -4 0
-8 -6 -8 -7 0 -9 7 -6 16 3 8 2 13 -3 10 -12 -8 -11 -56 1 -56 5 0 6 4 3 10
-8 12 1 13 85 11 14 -1 39 -1 55 -1 56 0 60 -2 72 -26 6 -13 8 -24 3 -24 -11
0 -31 26 -25 32 3 2 -2 5 -10 5 -12 0 -12 -3 -2 -16 10 -12 9 -14 -6 -8 -10 4
-20 7 -23 7 -2 0 -1 7 3 16 3 9 -7 3 -23 -13 -27 -26 -43 -60 -23 -47 5 3 6
10 3 16 -4 6 -1 8 7 6 8 -3 13 -11 12 -17 -2 -6 2 -11 7 -11 13 0 13 13 -1 27
-8 8 -8 13 0 17 6 4 11 2 11 -4 0 -6 4 -8 10 -5 5 3 15 -3 22 -15 15 -24 36
-26 44 -5 4 8 10 12 16 9 5 -3 5 -10 0 -17 -11 -15 -12 -48 -1 -41 5 2 5 12 2
22 -6 14 -4 15 9 4 13 -10 17 -10 21 2 4 10 1 13 -9 9 -14 -5 -14 -3 -3 15 7
11 15 20 18 20 19 -2 31 3 27 10 -3 5 5 8 17 7 12 -1 21 -5 19 -9 -2 -4 5 -14
15 -22 10 -7 13 -14 7 -14 -5 0 -14 3 -20 7 -5 5 -2 1 8 -8 15 -14 15 -18 3
-22 -8 -4 -16 2 -20 14 -7 21 -25 26 -25 7 0 -6 -3 -8 -7 -4 -5 4 1 14 11 22
11 8 15 14 9 14 -21 0 -35 -28 -24 -47 6 -10 11 -12 11 -5 0 6 5 12 11 12 6 0
8 -7 5 -15 -15 -38 -16 -48 -2 -25 8 14 15 19 16 13 0 -7 5 -13 11 -13 5 0 7
5 3 11 -4 7 -1 10 7 7 8 -3 13 -11 11 -17 -1 -6 5 -14 13 -17 8 -3 12 -10 9
-15 -3 -5 2 -6 12 -2 14 5 13 8 -7 19 -13 7 -20 13 -15 14 5 0 3 6 -4 14 -9
12 -8 15 9 13 13 -1 20 -6 17 -14 -3 -7 -1 -13 4 -13 5 0 12 9 15 21 4 11 10
18 13 14 10 -10 9 -29 -2 -37 -6 -4 -7 -10 -3 -15 10 -9 28 18 20 30 -3 5 4 6
15 3 23 -8 39 8 21 20 -8 4 -9 3 -5 -4 4 -7 3 -12 -3 -12 -5 0 -13 10 -16 21
-5 15 -9 18 -15 9 -5 -8 -10 -9 -14 -2 -10 17 16 27 28 11 13 -17 51 -26 41
-10 -3 6 -1 11 4 11 18 0 6 -43 -15 -54 -22 -13 -34 -27 -34 -41 1 -5 6 -1 12
9 10 18 11 18 30 -5 17 -22 18 -22 9 -2 -15 30 -14 38 4 23 8 -7 15 -18 15
-25 0 -11 20 -25 35 -25 2 0 -9 14 -25 32 -16 17 -26 36 -23 41 3 5 14 -5 25
-22 11 -17 25 -31 31 -30 8 0 8 2 0 6 -7 2 -13 9 -13 14 0 6 5 7 10 4 6 -4 17
-1 25 5 17 14 21 0 5 -16 -6 -6 -3 -14 10 -22 13 -8 20 -9 20 -1 0 5 5 7 10 4
6 -3 10 -1 10 5 0 7 -8 9 -20 5 -11 -4 -20 -2 -20 4 0 10 14 15 33 12 5 -1 5
4 1 10 -4 7 -2 10 7 7 8 -3 13 -14 11 -24 -3 -18 -3 -18 12 1 9 11 16 15 16 7
0 -7 -9 -20 -20 -29 -22 -19 -26 -33 -9 -33 5 0 8 3 6 8 -6 10 26 37 48 40 18
2 17 0 -5 -19 l-25 -21 27 16 c35 21 44 20 27 -1 -11 -13 -11 -17 -1 -20 6 -3
10 -8 8 -12 -3 -4 1 -8 9 -8 20 0 19 13 -1 21 -12 5 -14 10 -5 19 11 14 45 16
57 4 7 -7 -10 -11 -35 -8 -11 2 -11 0 0 -12 10 -11 16 -12 21 -3 4 6 8 7 8 3
0 -4 10 1 22 13 12 11 23 19 24 17 7 -6 -9 -46 -16 -42 -4 3 -15 -6 -24 -20
-10 -15 -12 -26 -6 -30 6 -4 10 -3 9 2 -4 15 13 43 22 37 5 -3 13 5 18 18 8
20 10 21 16 5 4 -9 14 -17 23 -17 13 0 11 4 -6 16 -27 19 -28 30 -2 30 12 0
19 -5 16 -12 -3 -7 2 -10 13 -7 11 3 21 -2 24 -11 4 -9 13 -16 22 -16 15 0 19
11 15 39 -1 12 1 13 14 2 8 -7 12 -19 9 -27 -3 -8 -1 -14 5 -14 12 0 11 18 -2
39 -7 11 -5 13 7 8 9 -3 19 -1 23 5 4 6 3 8 -4 4 -6 -3 -14 -1 -18 5 -4 8 -9
7 -15 -2 -7 -12 -9 -11 -9 0 0 11 -4 9 -15 -5 -11 -13 -14 -14 -13 -4 2 8 7
18 12 21 4 4 3 10 -3 13 -6 4 -11 3 -11 -3 0 -5 -9 -8 -20 -6 -11 2 -18 0 -16
-4 7 -10 -52 -7 -61 4 -5 4 -1 5 7 0 12 -6 13 -5 3 6 -18 19 -16 28 6 26 11 0
17 -5 15 -9 -3 -5 -11 -5 -17 -2 -7 4 -7 1 1 -7 11 -12 15 -11 26 4 13 17 14
17 20 0 4 -10 10 -13 14 -8 4 6 19 10 33 11 20 0 25 -4 21 -15 -4 -12 -1 -12
18 2 22 16 25 15 44 -1 16 -14 18 -14 14 -1 -5 12 1 15 28 12 19 -1 39 -5 44
-8 6 -3 10 0 10 7 0 8 5 6 11 -5 6 -9 15 -14 22 -10 16 10 57 13 57 4 0 -4 -6
-15 -13 -25 -11 -15 -18 -16 -34 -7 -16 8 -24 7 -33 -4 -11 -14 -15 -14 -30 0
-16 14 -17 14 -15 -9 2 -15 -3 -27 -12 -31 -9 -3 -13 -8 -10 -12 4 -3 14 0 23
7 13 12 17 11 26 -1 8 -11 9 -11 4 3 -3 10 -1 20 4 23 10 6 14 -7 11 -35 -2
-13 -1 -13 8 0 10 14 12 13 15 -20 1 -10 9 -14 23 -12 17 2 21 -1 17 -11 -3
-8 -1 -17 4 -21 5 -3 8 5 7 17 -1 15 -8 22 -22 21 -15 0 -20 6 -20 23 0 12 3
20 8 17 5 -3 17 0 28 5 15 8 24 5 45 -14 14 -13 26 -20 26 -15 0 5 9 12 20 15
11 3 20 14 20 22 0 9 3 13 7 9 4 -4 8 -15 8 -24 0 -9 6 -17 13 -17 7 0 17 -7
22 -15 7 -11 10 -11 10 -2 0 7 4 11 9 7 5 -3 12 -1 16 5 4 6 11 7 17 4 6 -4 8
-2 5 3 -4 6 0 13 8 17 18 6 19 1 4 -25 -5 -11 -14 -17 -20 -14 -5 4 -12 -1
-15 -9 -3 -9 -10 -14 -14 -11 -4 3 -14 -3 -21 -13 -12 -15 -12 -16 2 -5 9 7
19 10 22 6 4 -3 9 1 13 10 3 9 14 14 25 12 10 -2 18 -1 18 3 -3 20 2 32 11 27
6 -4 7 1 3 12 -6 16 -5 16 9 5 13 -10 22 -11 38 -2 19 10 21 10 16 -7 -5 -15
1 -23 21 -32 l28 -12 -22 18 -23 18 26 12 c22 10 24 10 19 -7 -3 -10 -1 -21 5
-25 8 -5 7 -12 -1 -23 -10 -13 -9 -13 7 1 15 14 16 19 5 26 -8 5 -10 14 -6 21
6 10 10 9 17 -3 6 -11 19 -15 40 -13 30 4 51 23 42 37 -2 4 0 10 6 14 10 6 14
-6 11 -37 -1 -9 2 -19 7 -22 5 -3 8 5 8 17 -1 18 5 22 34 23 57 2 61 4 55 15
-4 6 -13 8 -19 6 -7 -3 -13 1 -13 8 0 7 7 11 16 8 10 -3 12 -1 6 4 -14 12 -17
33 -4 33 5 0 8 4 4 9 -3 5 -1 12 4 15 5 4 7 -8 4 -26 -4 -30 -3 -32 10 -14 8
12 19 16 27 11 9 -5 10 -2 5 14 -4 13 -2 21 5 21 6 0 9 -4 6 -8 -2 -4 4 -13
14 -20 16 -10 18 -8 17 8 -1 11 -6 20 -11 20 -5 0 -7 3 -4 6 4 3 19 -3 34 -13
25 -16 27 -16 22 -1 -4 9 -1 18 6 21 9 4 11 -2 8 -20 -3 -18 -1 -24 7 -19 6 4
9 12 6 17 -4 5 1 12 9 15 9 3 14 10 11 14 -3 5 4 6 15 3 11 -3 20 -9 20 -14 0
-5 -8 -5 -17 -2 -16 6 -16 5 -4 -11 14 -17 16 -17 28 0 7 9 10 20 8 25 -3 4
-2 10 3 13 12 7 11 -26 -1 -41 -6 -9 -6 -13 1 -13 13 0 26 20 27 39 0 8 6 15
13 17 7 1 8 0 2 -3 -5 -2 -10 -10 -10 -16 0 -5 3 -7 7 -4 3 4 16 0 29 -8 20
-13 24 -12 35 1 11 13 10 15 -2 14 -26 -4 -39 0 -39 11 0 8 4 8 14 0 11 -9 15
-9 19 1 4 9 8 10 14 2 4 -6 16 -10 26 -8 9 1 17 -3 17 -9 0 -5 3 -7 7 -4 3 4
13 1 20 -5 12 -9 14 -9 13 3 -4 25 0 39 10 39 5 0 9 -5 7 -11 -1 -6 4 -14 12
-17 8 -2 11 0 8 5 -3 5 -1 15 5 23 8 12 9 12 4 -2 -3 -10 -1 -20 4 -23 6 -4
10 1 10 9 0 9 5 16 11 16 5 0 7 5 3 11 -4 8 0 8 15 0 16 -9 21 -9 21 1 0 10 3
9 9 -1 11 -17 39 -23 47 -10 5 8 -10 13 -29 10 -5 -1 -6 2 -3 7 2 4 23 7 45 6
25 -1 41 3 41 10 0 6 5 3 11 -6 5 -10 15 -18 21 -18 7 0 7 4 -1 13 -8 10 -7
14 2 15 6 0 26 4 42 7 17 4 44 8 60 9 17 0 33 6 37 11 5 6 8 5 8 -2 0 -16 26
-17 36 -1 5 8 2 9 -10 5 -11 -4 -15 -3 -11 4 4 6 13 8 20 5 7 -2 16 -2 19 2 7
6 25 10 59 14 9 1 17 6 17 10 0 4 7 8 15 8 8 0 15 -5 15 -11 0 -5 -4 -7 -10
-4 -6 4 -7 -1 -3 -11 5 -14 3 -15 -17 -4 -12 7 -20 8 -16 2 3 -5 -4 -9 -17 -8
-15 1 -22 -4 -21 -16 2 -19 -22 -32 -31 -18 -4 6 -1 10 4 10 6 0 11 5 11 11 0
8 -5 8 -15 -1 -12 -10 -13 -16 -4 -26 8 -10 8 -14 1 -14 -6 0 -14 5 -17 10 -4
6 -11 8 -16 5 -5 -4 -9 -1 -9 5 0 6 -4 9 -10 5 -5 -3 -2 -14 8 -26 9 -11 20
-29 24 -42 l6 -22 1 22 c1 12 -3 25 -9 28 -5 3 -10 11 -10 17 0 7 5 6 15 -2 8
-6 19 -9 24 -6 5 4 12 2 16 -4 3 -5 -2 -10 -11 -10 -10 0 -15 -3 -11 -6 3 -4
14 -4 23 0 13 5 14 9 4 21 -8 10 -9 15 -2 15 6 0 16 -8 21 -17 6 -10 11 -13
11 -7 0 6 -3 14 -7 18 -14 13 -12 43 2 43 11 0 13 -6 9 -20 -4 -13 -2 -17 5
-13 6 4 11 14 11 22 0 8 5 14 11 14 5 0 8 -4 5 -9 -3 -5 1 -14 9 -21 10 -9 15
-9 15 -1 0 6 -5 11 -11 11 -5 0 -7 5 -4 10 4 6 11 8 16 5 5 -3 6 0 3 8 -5 14
-2 14 53 8 6 0 9 -11 7 -24 -4 -20 -4 -20 5 -2 10 24 5 35 -15 35 -8 0 -12 5
-9 10 4 7 12 7 25 0 10 -5 22 -10 27 -10 4 1 -4 8 -19 16 -16 8 -28 20 -28 25
0 7 11 4 26 -6 25 -16 27 -16 47 4 12 12 16 21 9 21 -6 0 -12 -6 -12 -12 0 -9
-4 -8 -11 2 -9 13 -10 12 -5 -3 7 -22 -8 -22 -25 1 -7 9 -10 14 -5 10 4 -4 22
2 38 12 17 10 38 16 47 13 9 -4 13 -2 8 2 -8 9 123 75 136 68 4 -3 2 -12 -5
-21 -12 -15 -11 -16 4 -3 10 7 16 17 13 21 -3 4 3 14 12 21 9 8 14 9 10 3 -3
-6 0 -11 7 -11 8 0 12 6 9 12 -5 14 51 37 63 27 4 -4 4 -2 0 5 -4 8 5 18 26
28 18 9 44 22 58 30 27 15 110 90 110 100 0 3 8 13 18 24 51 55 71 80 96 124
15 26 25 47 21 47 -4 0 -3 6 3 13 6 7 14 28 18 47 11 54 12 291 1 325 -5 17
-10 38 -11 47 -1 9 -14 34 -28 55 -52 75 -53 83 -19 155 26 53 41 72 89 105
31 22 67 44 80 47 12 4 22 13 23 19 0 7 3 25 5 42 4 21 0 33 -12 42 -16 12
-17 18 -6 45 9 25 9 37 -2 62 -17 38 -30 87 -27 101 2 5 -3 27 -10 48 -8 26
-17 36 -27 32 -8 -3 -16 3 -19 15 -3 11 -12 20 -20 20 -8 0 -21 6 -29 14 -7 8
-19 16 -26 18 -15 5 14 55 44 76 34 24 66 106 47 117 -14 9 -1 25 20 25 10 0
26 11 35 25 10 14 28 30 41 35 25 9 40 46 51 126 l6 41 -91 5 c-50 2 -93 7
-96 10 -6 6 11 40 41 83 12 17 24 40 28 52 9 30 -18 81 -48 89 -34 8 -81 -19
-99 -59 -9 -19 -23 -40 -32 -47 -13 -11 -15 -9 -15 14 0 33 0 33 -16 84 l-13
44 57 56 c49 49 61 67 80 131 12 40 19 77 16 82 -3 5 -2 15 3 22 11 17 11 126
0 167 -5 19 -11 47 -12 62 -1 16 -8 43 -16 60 -26 67 -177 258 -203 258 -6 0
-22 14 -36 32 -23 29 -89 97 -132 135 -24 22 -108 65 -108 56 0 -5 -4 -3 -8 4
-4 6 -28 21 -52 32 -25 12 -52 25 -60 30 -8 5 -30 15 -48 22 -19 7 -40 19 -48
27 -17 16 -153 66 -161 59 -2 -3 -24 4 -48 14 -25 11 -100 31 -169 44 -68 13
-137 27 -153 30 -15 3 -49 7 -74 9 -26 2 -51 6 -56 9 -5 3 -20 8 -34 11 -66
13 -117 25 -144 34 -16 5 -39 6 -50 2 -11 -4 -25 -2 -32 6 -7 7 -23 11 -36 8
-37 -8 -118 -7 -192 1 -38 4 -86 9 -105 11 -19 2 -57 5 -85 9 -66 7 -255 12
-260 6z m1580 -3930 c3 -6 -3 -15 -14 -20 -18 -10 -21 -3 -12 27 2 6 20 1 26
-7z m-2565 -91 c0 -5 -3 -15 -6 -23 -5 -14 -8 -14 -24 1 -11 8 -17 18 -15 22
6 9 45 10 45 0z m148 -23 c8 3 11 -3 9 -18 -4 -21 -37 -38 -37 -18 0 6 -6 7
-12 3 -7 -4 -10 -4 -6 1 4 4 3 16 -3 26 -8 17 -7 18 13 10 13 -4 29 -6 36 -4z
m-202 -24 c-7 -7 -26 7 -26 19 0 6 6 6 15 -2 9 -7 13 -15 11 -17z m393 -9 c5
4 12 2 15 -2 3 -5 16 -8 30 -7 20 3 23 -1 19 -19 l-5 -21 16 22 c9 12 24 20
33 18 10 -2 18 -4 18 -5 0 -3 64 -10 88 -11 15 0 22 -12 15 -22 -2 -2 4 -12
12 -23 8 -10 10 -16 6 -12 -5 4 -15 3 -23 -4 -10 -8 -17 -8 -25 0 -6 6 -16 8
-22 6 -6 -2 -12 5 -13 16 -2 20 -2 20 26 1 l27 -20 0 25 c0 16 -3 21 -10 14
-6 -6 -15 -10 -21 -10 -5 0 -3 5 5 10 11 8 8 9 -12 6 -16 -3 -28 -1 -28 3 0
13 -29 9 -34 -5 -3 -8 0 -11 8 -8 17 6 41 -22 26 -31 -5 -3 -10 -2 -10 4 0 5
-11 8 -24 7 -16 -2 -23 1 -19 10 3 8 -2 11 -14 9 -10 -1 -26 7 -36 19 -10 11
-16 16 -13 10 8 -16 -20 -39 -29 -24 -4 6 -12 7 -18 3 -20 -14 -46 -9 -61 12
-13 18 -12 21 12 31 17 7 31 8 39 2 7 -5 17 -7 22 -4z m1176 -51 c-2 -16 -4
-28 -5 -28 -1 0 -3 -8 -5 -18 -5 -27 -13 -31 -30 -17 -12 10 -15 10 -15 -1 -1
-10 -4 -9 -11 3 -8 15 -13 16 -29 5 -11 -6 -20 -15 -20 -20 0 -4 6 -5 13 -1 9
6 8 3 -1 -8 -7 -9 -23 -16 -35 -15 -24 2 -60 33 -53 46 3 4 -1 8 -8 8 -8 0
-12 -6 -9 -13 6 -17 -15 -28 -30 -15 -8 6 -18 6 -27 1 -8 -5 -21 -5 -29 -1
-23 12 -62 3 -78 -17 -12 -15 -13 -14 -9 11 4 25 -6 37 -17 20 -2 -5 -2 -1 0
7 3 12 2 13 -8 2 -10 -9 -10 -15 -1 -24 16 -16 15 -33 -1 -19 -8 6 -18 7 -22
3 -5 -4 -6 0 -2 9 3 9 1 21 -5 27 -8 8 -18 4 -36 -15 -24 -26 -25 -26 -38 -8
-8 10 -14 15 -14 11 0 -5 -6 -4 -12 2 -19 15 -30 15 -40 0 -7 -10 -11 -10 -15
0 -2 6 -9 12 -14 12 -6 0 -7 -4 -4 -10 3 -5 2 -10 -3 -10 -12 0 -23 26 -15 34
3 3 15 0 26 -5 16 -9 24 -7 43 14 12 14 21 27 19 29 -2 2 4 4 15 4 10 0 17 -3
14 -7 -2 -4 2 -9 8 -12 8 -2 9 -8 4 -13 -5 -5 -11 -4 -13 4 -3 6 -9 12 -15 12
-6 0 -4 -7 3 -17 12 -14 12 -16 0 -8 -9 5 -12 4 -7 -3 4 -6 14 -9 24 -6 15 5
15 4 2 -6 -13 -10 -13 -11 2 -7 9 3 19 1 22 -6 3 -7 3 0 1 15 -2 15 -6 32 -9
37 -4 5 -1 13 5 17 8 4 9 3 5 -4 -9 -16 7 -15 22 0 9 9 12 9 12 -1 0 -7 5 -9
12 -5 21 13 46 12 41 -2 -2 -7 -14 -11 -24 -9 -12 2 -19 -1 -17 -7 2 -6 16
-12 31 -14 16 -1 25 1 21 7 -3 5 0 16 6 24 10 12 15 11 32 -8 l19 -22 -6 25
c-5 19 -4 22 4 10 10 -13 11 -13 11 0 1 9 6 6 14 -9 10 -19 14 -20 19 -8 3 9
3 18 -1 20 -4 2 -2 2 5 1 6 -2 14 2 17 9 3 7 5 6 5 -3 -2 -30 1 -43 9 -36 4 4
7 13 7 18 0 6 6 13 14 16 10 3 12 0 8 -11 -3 -9 -2 -19 3 -22 10 -6 14 7 11
35 -2 13 0 13 8 1 8 -12 12 -12 24 -2 9 6 18 8 21 3 6 -11 36 -9 55 3 10 5 12
4 7 -3 -4 -7 -3 -12 3 -12 5 0 12 4 15 8 3 5 19 8 36 7 16 -1 30 2 30 7 0 4 2
8 4 8 3 0 3 -12 1 -27z m-842 -38 c-3 -10 1 -15 13 -15 13 0 15 -3 7 -11 -7
-7 -19 -3 -39 17 -16 15 -24 24 -17 20 6 -3 14 -2 18 4 9 15 25 2 18 -15z"/>
<path d="M1500 613 c0 -1 8 -7 18 -12 13 -7 19 -6 19 2 0 7 -9 13 -19 13 -10
0 -18 -1 -18 -3z"/>
<path d="M1678 589 c-10 -5 -15 -16 -12 -24 4 -8 11 -12 16 -9 6 4 5 10 -3 15
-11 7 -11 9 -1 9 7 0 15 -7 19 -16 4 -12 8 -13 14 -3 6 10 11 10 22 1 7 -7 17
-9 20 -5 10 9 -13 34 -25 27 -5 -3 -14 -1 -21 4 -8 7 -18 7 -29 1z"/>
<path d="M1814 568 c-4 -5 -3 -12 0 -15 3 -4 6 0 6 8 0 11 2 12 9 1 7 -11 9
-11 14 0 6 16 -20 21 -29 6z"/>
<path d="M2722 530 c-25 -24 -28 -31 -9 -27 6 1 11 -3 10 -9 -1 -7 8 -20 20
-30 14 -12 17 -13 9 -3 -6 9 -9 19 -5 22 9 10 25 9 19 -1 -2 -4 0 -14 6 -22 8
-13 9 -13 5 0 -5 17 46 54 58 42 10 -11 57 -14 51 -3 -4 5 -2 12 3 16 6 3 8
12 5 20 -6 13 -40 15 -60 2 -6 -3 -21 -5 -33 -2 -12 2 -29 1 -37 -2 -12 -4
-12 -8 -2 -21 10 -12 10 -14 1 -8 -8 4 -13 2 -13 -4 0 -6 -5 -8 -11 -4 -6 3
-7 9 -3 13 9 6 18 41 11 41 -2 0 -13 -9 -25 -20z m158 -15 c-13 -16 -42 -13
-48 5 -3 9 1 11 11 7 9 -3 19 -2 22 4 4 5 11 7 16 3 6 -4 6 -11 -1 -19z m-90
5 c0 -5 -4 -10 -10 -10 -5 0 -10 5 -10 10 0 6 5 10 10 10 6 0 10 -4 10 -10z
m15 -17 c-11 -7 -24 -13 -29 -13 -6 1 -1 6 12 13 12 7 19 17 15 22 -4 4 -2 5
6 0 12 -7 11 -10 -4 -22z"/>
<path d="M2439 528 c-8 -27 -6 -38 5 -29 9 7 16 7 25 -2 10 -9 10 -6 0 11 -12
18 -27 29 -30 20z"/>
<path d="M2534 501 c0 -17 5 -27 11 -23 17 11 75 9 75 -2 0 -6 4 -5 9 2 11 19
15 19 34 4 20 -17 26 -5 18 34 0 4 -8 1 -16 -6 -12 -10 -16 -9 -21 4 -6 15 -8
15 -19 -1 -13 -17 -14 -17 -20 0 -7 16 -8 16 -19 1 -11 -14 -13 -14 -25 0 -20
24 -29 19 -27 -13z m25 6 c8 -10 7 -14 -2 -14 -8 0 -14 6 -14 14 0 7 1 13 2
13 2 0 8 -6 14 -13z m45 -5 c3 -5 -1 -9 -9 -9 -8 0 -12 4 -9 9 3 4 7 8 9 8 2
0 6 -4 9 -8z m40 0 c3 -5 -1 -9 -9 -9 -8 0 -12 4 -9 9 3 4 7 8 9 8 2 0 6 -4 9
-8z m33 -7 c0 -8 -4 -12 -9 -9 -5 3 -6 10 -3 15 9 13 12 11 12 -6z"/>
<path d="M2349 503 c-7 -10 -9 -15 -5 -11 5 4 16 2 25 -5 14 -10 14 -10 4 4
-7 9 -10 19 -6 22 3 4 4 7 1 7 -3 0 -12 -8 -19 -17z"/>
<path d="M4286 862 c-3 -5 1 -9 9 -9 8 0 12 4 9 9 -3 4 -7 8 -9 8 -2 0 -6 -4
-9 -8z"/>
<path d="M700 846 c0 -2 8 -10 18 -17 15 -13 16 -12 3 4 -13 16 -21 21 -21 13z"/>
<path d="M4157 834 c-23 -12 -30 -34 -11 -34 3 0 2 5 -2 12 -5 8 -2 9 10 5 11
-5 15 -3 10 5 -5 7 -2 9 8 6 9 -4 15 0 15 8 0 8 -1 14 -1 14 -1 -1 -14 -8 -29
-16z"/>
<path d="M4250 820 c0 -5 5 -10 11 -10 5 0 7 5 4 10 -3 6 -8 10 -11 10 -2 0
-4 -4 -4 -10z"/>
<path d="M4092 789 c-11 -18 -16 -19 -30 -7 -15 12 -16 11 -3 -5 11 -14 16
-15 29 -5 13 11 15 10 10 -10 -4 -13 -2 -20 3 -16 6 3 9 15 7 27 -2 14 2 21
10 19 8 -1 11 2 7 8 -9 15 -19 12 -33 -11z"/>
<path d="M4350 806 c0 -2 7 -7 16 -10 8 -3 12 -2 9 4 -6 10 -25 14 -25 6z"/>
<path d="M829 783 c-13 -16 -12 -17 4 -4 9 7 17 15 17 17 0 8 -8 3 -21 -13z"/>
<path d="M775 780 c-3 -5 -1 -10 4 -10 6 0 11 5 11 10 0 6 -2 10 -4 10 -3 0
-8 -4 -11 -10z"/>
<path d="M4133 766 c0 -11 33 -16 39 -5 2 2 1 3 -1 2 -2 -1 -11 2 -21 7 -12 6
-17 5 -17 -4z"/>
<path d="M840 765 c0 -2 6 -8 13 -14 10 -8 14 -7 14 2 0 8 -6 14 -14 14 -7 0
-13 -1 -13 -2z"/>
<path d="M950 761 c0 -5 7 -15 17 -22 15 -13 15 -12 4 9 -12 23 -21 28 -21 13z"/>
<path d="M815 740 c-3 -5 -1 -10 4 -10 6 0 11 5 11 10 0 6 -2 10 -4 10 -3 0
-8 -4 -11 -10z"/>
<path d="M910 746 c0 -2 9 -6 20 -9 11 -3 18 -1 14 4 -5 9 -34 13 -34 5z"/>
<path d="M4033 723 c9 -8 57 -13 57 -6 0 5 -14 9 -31 9 -16 1 -28 0 -26 -3z"/>
<path d="M4110 718 c0 -4 4 -8 9 -8 6 0 12 4 15 8 3 5 -1 9 -9 9 -8 0 -15 -4
-15 -9z"/>
<path d="M1082 706 c7 -8 15 -12 17 -11 5 6 -10 25 -20 25 -5 0 -4 -6 3 -14z"/>
<path d="M1001 701 c-8 -5 -9 -11 -3 -15 5 -3 12 1 16 9 6 17 6 18 -13 6z"/>
<path d="M4028 703 c6 -2 9 -10 6 -15 -4 -7 -2 -8 5 -4 13 9 5 26 -12 25 -9 0
-8 -2 1 -6z"/>
<path d="M1071 684 c0 -11 3 -14 6 -6 3 7 2 16 -1 19 -3 4 -6 -2 -5 -13z"/>
<path d="M920 680 c-9 -6 -10 -10 -3 -10 6 0 15 5 18 10 8 12 4 12 -15 0z"/>
<path d="M3936 675 c4 -8 8 -15 10 -15 2 0 4 7 4 15 0 8 -4 15 -10 15 -5 0 -7
-7 -4 -15z"/>
<path d="M4096 678 c3 -5 10 -6 15 -3 13 9 11 12 -6 12 -8 0 -12 -4 -9 -9z"/>
<path d="M1016 672 c-2 -4 4 -8 14 -8 10 0 16 4 14 8 -3 4 -9 8 -14 8 -5 0
-11 -4 -14 -8z"/>
<path d="M1239 653 c-13 -16 -12 -17 4 -4 9 7 17 15 17 17 0 8 -8 3 -21 -13z"/>
<path d="M3676 663 c-4 -5 -16 -9 -27 -9 -36 -3 -40 -4 -34 -13 8 -13 -12 -24
-27 -14 -14 8 -70 12 -63 4 8 -7 -17 -31 -26 -25 -5 3 -9 1 -9 -5 0 -5 5 -11
12 -13 9 -3 9 -6 0 -12 -8 -4 -15 2 -21 16 -11 30 -47 34 -61 7 -6 -11 -15
-17 -20 -14 -5 3 -12 0 -15 -5 -5 -7 -12 -5 -22 7 -8 10 -12 12 -8 6 9 -19 -4
-36 -18 -25 -7 5 -20 8 -29 7 -10 -2 -18 2 -18 8 0 6 -11 0 -24 -12 -16 -15
-26 -19 -31 -12 -3 6 -11 9 -16 6 -5 -4 -9 -1 -9 6 0 7 -9 4 -23 -9 -23 -22
-49 -24 -69 -4 -14 14 -32 16 -23 3 6 -10 -11 -24 -32 -27 -7 -1 -13 1 -13 6
0 4 -7 11 -16 14 -8 3 -12 2 -9 -4 10 -17 -5 -32 -20 -20 -9 7 -15 8 -19 1 -4
-6 -12 -8 -19 -5 -7 2 -18 -5 -25 -16 -7 -11 -8 -20 -3 -20 5 0 13 -10 16 -21
6 -17 9 -19 16 -8 5 8 6 23 2 34 -5 17 -4 18 9 8 8 -7 18 -10 21 -6 15 15 5
-11 -15 -40 -14 -20 -16 -27 -6 -19 11 9 18 10 23 2 3 -5 11 -10 18 -10 6 0 3
6 -6 13 -12 8 -14 16 -7 27 5 8 10 11 10 6 0 -5 6 -3 14 3 11 9 19 9 35 -1 12
-7 21 -16 21 -20 0 -5 5 -8 11 -8 8 0 8 4 0 14 -9 10 -6 17 13 29 23 15 36 13
36 -5 0 -5 -4 -7 -8 -4 -4 2 -14 1 -21 -3 -9 -6 -10 -11 -2 -15 6 -4 11 -2 11
4 0 6 11 4 28 -6 17 -10 21 -11 10 -2 -13 11 -15 17 -6 26 9 9 9 12 -2 12 -7
0 -11 2 -8 5 9 10 37 -6 32 -18 -5 -16 13 -43 23 -34 4 5 1 12 -6 16 -8 5 -10
14 -6 21 6 9 9 9 16 -1 10 -17 59 -22 59 -6 0 8 3 8 12 -1 7 -7 17 -12 23 -12
5 0 2 5 -8 11 -12 7 -15 15 -8 27 4 9 7 22 5 27 -3 6 5 11 17 12 17 2 19 -1
11 -9 -9 -9 -6 -18 10 -35 25 -26 14 -31 -14 -6 -10 9 -18 12 -18 7 0 -5 9
-15 21 -22 17 -11 25 -11 45 3 13 8 24 21 24 27 0 6 9 3 20 -7 11 -10 20 -15
20 -11 0 4 -10 16 -22 27 -27 22 -11 26 18 4 10 -8 23 -15 28 -15 6 0 1 6 -9
14 -19 13 -18 14 8 13 17 -1 25 -7 22 -14 -2 -7 1 -13 6 -13 6 0 9 9 6 20 -3
10 2 25 10 32 12 10 14 9 13 -3 -4 -27 0 -40 10 -34 6 4 8 16 5 28 -5 16 -4
18 3 8 7 -9 12 -10 16 -2 4 6 2 11 -4 11 -6 0 -9 4 -5 10 3 5 12 7 20 4 8 -4
12 -10 9 -15 -3 -5 3 -6 12 -2 11 4 15 3 10 -5 -3 -6 -1 -14 5 -18 8 -5 8 -8
-1 -14 -8 -5 -7 -9 5 -13 9 -4 13 -3 10 3 -3 6 0 10 7 10 8 0 6 5 -5 11 -9 6
-15 14 -12 20 4 5 -1 12 -9 15 -9 3 -13 10 -10 16 8 12 34 -10 34 -28 0 -8 5
-14 11 -14 5 0 8 4 5 9 -3 5 2 15 11 22 14 12 15 11 9 -9 -5 -14 -3 -22 4 -22
6 0 8 -5 4 -12 -4 -7 -3 -8 5 -4 9 6 9 11 -1 24 -11 14 -10 15 6 8 19 -6 19
-6 3 12 -21 23 -22 39 -1 21 13 -10 17 -10 24 1 4 7 5 20 2 29 -5 13 -3 14 9
4 9 -7 20 -9 29 -3 12 7 11 10 -4 16 -14 5 -15 9 -4 15 9 6 9 9 1 9 -6 0 -15
-5 -19 -11 -5 -8 -8 -8 -13 0 -4 6 -11 8 -15 4z m-37 -54 c-8 -5 -10 -9 -4 -9
5 0 4 -5 -3 -12 -9 -9 -16 -7 -31 6 -13 12 -21 14 -26 6 -4 -6 -12 -9 -18 -7
-7 2 -20 -2 -29 -10 -13 -12 -16 -12 -14 -1 3 20 16 39 25 34 4 -3 13 -1 21 4
9 5 20 4 28 -3 12 -9 18 -7 31 10 14 18 17 19 25 6 5 -10 4 -18 -5 -24z m46
16 c-1 -11 -6 -18 -11 -16 -5 1 -8 7 -6 12 1 5 -2 9 -8 9 -5 0 -10 4 -10 8 0
4 8 8 18 8 12 0 18 -7 17 -21z m-205 -70 c-6 -7 -29 -11 -57 -10 -37 1 -51 -3
-64 -18 -9 -12 -21 -17 -28 -13 -8 5 -9 12 -2 20 7 9 7 17 -2 26 -10 12 -9 12
5 2 11 -9 18 -10 23 -2 3 6 10 8 15 5 5 -3 11 -1 15 5 4 6 10 8 15 5 5 -3 11
-1 15 4 3 6 13 7 23 4 15 -6 16 -5 2 12 -12 16 -9 15 18 -4 24 -17 30 -26 22
-36z m-266 -33 c-5 -15 -4 -15 6 1 6 9 8 23 4 30 -5 9 -4 9 6 0 7 -6 18 -9 25
-7 21 9 36 -20 21 -41 -17 -23 -58 -31 -50 -10 4 10 0 13 -15 10 -12 -2 -21 0
-21 4 0 6 -55 8 -67 2 -2 0 -5 0 -8 2 -2 1 -10 -7 -18 -17 -13 -18 -43 -14
-32 4 3 4 -2 11 -11 14 -22 9 -31 7 -16 -3 10 -6 10 -10 -3 -21 -13 -11 -15
-10 -9 3 4 12 1 15 -15 12 -22 -4 -38 10 -22 19 5 4 13 2 16 -4 4 -7 11 -7 18
-2 26 20 53 8 48 -21 -1 -5 3 -6 9 -2 6 3 8 10 5 14 -2 5 2 17 10 27 8 10 15
14 15 8 0 -14 56 -12 71 3 16 16 40 -2 33 -25z m164 -12 c-13 -20 -28 -27 -28
-12 0 10 22 32 32 32 5 0 3 -9 -4 -20z m-411 -17 c1 -22 -1 -24 -8 -10 -6 9
-7 22 -4 27 9 14 10 13 12 -17z"/>
<path d="M3620 615 c-7 -9 -11 -17 -9 -20 3 -2 10 5 17 15 14 24 10 26 -8 5z"/>
<path d="M3560 610 c-9 -6 -10 -10 -3 -10 6 0 15 5 18 10 8 12 4 12 -15 0z"/>
<path d="M3415 571 c-3 -2 -5 -8 -5 -11 0 -10 56 -7 67 3 4 5 -1 5 -11 1 -12
-4 -17 -4 -13 2 5 10 -30 14 -38 5z"/>
<path d="M3344 538 l-19 -23 23 19 c12 11 22 21 22 23 0 8 -8 2 -26 -19z"/>
<path d="M3181 536 c-10 -11 -9 -14 1 -12 14 2 23 15 15 22 -2 2 -10 -2 -16
-10z"/>
<path d="M3243 532 c-8 -5 -8 -11 1 -24 11 -15 13 -15 26 5 12 21 12 21 -5 7
-17 -14 -18 -13 -12 3 7 19 7 20 -10 9z"/>
<path d="M3095 519 c-3 -4 2 -6 10 -5 21 3 28 13 10 13 -9 0 -18 -4 -20 -8z"/>
<path d="M1055 650 c-4 -6 -11 -7 -17 -4 -7 4 -8 2 -4 -5 6 -9 11 -9 22 0 14
11 18 19 10 19 -3 0 -8 -5 -11 -10z"/>
<path d="M1137 646 c-4 -10 -3 -15 3 -11 6 3 10 1 10 -6 0 -7 3 -10 6 -6 3 3
2 13 -4 22 -8 16 -9 16 -15 1z"/>
<path d="M1170 645 c0 -8 2 -15 4 -15 2 0 6 7 10 15 3 8 1 15 -4 15 -6 0 -10
-7 -10 -15z"/>
<path d="M1199 648 c-6 -21 -5 -38 2 -38 5 0 9 2 9 4 0 2 3 11 6 20 3 9 1 16
-5 16 -6 0 -11 -1 -12 -2z"/>
<path d="M3870 645 c0 -2 10 -10 23 -16 20 -11 21 -11 8 4 -13 16 -31 23 -31
12z"/>
<path d="M3936 633 c-6 -14 -5 -15 5 -6 7 7 10 15 7 18 -3 3 -9 -2 -12 -12z"/>
<path d="M1010 619 c0 -5 5 -7 10 -4 6 3 10 8 10 11 0 2 -4 4 -10 4 -5 0 -10
-5 -10 -11z"/>
<path d="M3711 599 c-11 -13 -19 -25 -16 -27 2 -3 14 6 25 19 17 21 21 22 31
9 9 -12 10 -12 7 -1 -7 24 -25 24 -47 0z"/>
<path d="M1113 595 c0 -8 4 -12 9 -9 4 3 8 9 8 15 0 5 -4 9 -8 9 -5 0 -9 -7
-9 -15z"/>
<path d="M1146 599 c2 -4 13 -7 24 -6 23 2 17 10 -10 12 -10 1 -17 -2 -14 -6z"/>
<path d="M3825 600 c-5 -7 72 -6 80 1 2 3 -14 5 -36 5 -22 0 -42 -3 -44 -6z"/>
<path d="M3950 606 c0 -2 7 -7 16 -10 8 -3 12 -2 9 4 -6 10 -25 14 -25 6z"/>
<path d="M1279 588 c-7 -23 -4 -35 7 -35 11 0 11 3 1 16 -10 12 -9 14 6 8 11
-4 16 -3 12 3 -5 9 -24 14 -26 8z"/>
<path d="M3734 582 c4 -7 2 -12 -3 -12 -15 0 -14 -27 1 -36 7 -4 8 -3 4 5 -4
6 -3 18 4 26 8 10 8 15 -1 21 -8 4 -9 3 -5 -4z"/>
<path d="M1179 578 c-5 -9 -5 -48 -1 -43 6 6 11 45 5 45 -2 0 -4 -1 -4 -2z"/>
<path d="M1400 565 c0 -8 4 -15 10 -15 5 0 7 7 4 15 -4 8 -8 15 -10 15 -2 0
-4 -7 -4 -15z"/>
<path d="M3855 569 c-4 -6 -5 -12 -2 -15 2 -3 7 2 10 11 7 17 1 20 -8 4z"/>
<path d="M1326 555 c4 -8 8 -15 10 -15 2 0 4 7 4 15 0 8 -4 15 -10 15 -5 0 -7
-7 -4 -15z"/>
<path d="M3755 559 c-4 -6 -4 -13 -1 -16 3 -4 6 -1 6 7 0 10 4 10 18 -1 15
-13 16 -12 3 4 -16 20 -18 20 -26 6z"/>
<path d="M2140 541 c0 -7 -5 -9 -12 -5 -7 4 -9 3 -5 -1 4 -5 13 -10 20 -12 7
-1 21 -4 32 -7 11 -2 24 -5 29 -5 13 -1 -3 -16 -17 -16 -7 -1 -15 4 -19 10 -5
6 -11 5 -18 -5 -13 -20 -13 -23 5 -46 15 -19 15 -19 8 1 -6 17 -4 18 9 8 12
-11 17 -8 28 15 7 15 12 33 11 41 -2 10 3 11 16 6 26 -10 38 -11 41 -2 1 4 1
7 0 6 -2 0 -15 4 -29 10 -20 7 -32 6 -45 -4 -16 -11 -22 -11 -36 2 -12 11 -18
12 -18 4z m50 -63 c0 -3 -9 -6 -20 -5 -11 1 -20 5 -20 9 0 3 9 6 20 5 11 -1
20 -5 20 -9z"/>
<path d="M3540 530 c-7 -14 -7 -20 0 -20 5 0 10 7 10 16 0 8 5 12 10 9 6 -3
10 -1 10 4 0 18 -19 12 -30 -9z"/>
<path d="M3676 534 c-8 -20 -8 -24 2 -24 4 0 8 9 9 20 2 24 -3 26 -11 4z"/>
<path d="M3910 541 c0 -6 4 -13 10 -16 6 -3 7 1 4 9 -7 18 -14 21 -14 7z"/>
<path d="M1455 530 c3 -4 14 -10 25 -13 11 -3 18 -2 15 3 -3 4 -14 10 -25 13
-11 3 -18 2 -15 -3z"/>
<path d="M2293 526 c-3 -5 -1 -6 5 -2 7 4 12 2 12 -3 0 -15 17 -14 23 2 6 15
-31 18 -40 3z"/>
<path d="M1346 518 c6 -9 44 -6 44 3 0 4 -11 6 -24 5 -13 0 -22 -4 -20 -8z"/>
<path d="M3773 511 c0 -11 5 -18 9 -15 4 3 5 11 1 19 -7 21 -12 19 -10 -4z"/>
<path d="M3490 487 c-10 -19 -9 -20 2 -6 7 9 19 14 26 12 17 -6 15 4 -3 11 -9
3 -19 -3 -25 -17z"/>
<path d="M1555 490 c-3 -6 1 -7 9 -4 18 7 21 14 7 14 -6 0 -13 -4 -16 -10z"/>
<path d="M3450 490 c-9 -6 -10 -10 -3 -10 6 0 15 5 18 10 8 12 4 12 -15 0z"/>
<path d="M1620 480 c-8 -5 -10 -10 -5 -10 6 0 17 5 25 10 8 5 11 10 5 10 -5 0
-17 -5 -25 -10z"/>
<path d="M3385 480 c-3 -6 1 -7 9 -4 18 7 21 14 7 14 -6 0 -13 -4 -16 -10z"/>
<path d="M1673 465 c0 -8 4 -15 9 -15 4 0 8 4 8 9 0 6 -4 12 -8 15 -5 3 -9 -1
-9 -9z"/>
<path d="M1746 463 c-6 -14 -5 -15 5 -6 7 7 10 15 7 18 -3 3 -9 -2 -12 -12z"/>
<path d="M1799 468 c-6 -22 -5 -38 3 -38 6 0 7 7 4 16 -5 12 -2 15 9 10 9 -3
13 -2 10 4 -5 9 -24 14 -26 8z"/>
<path d="M3030 460 c-12 -7 -10 -9 8 -7 12 0 22 5 22 9 0 11 -12 10 -30 -2z"/>
<path d="M3467 459 c7 -7 15 -10 18 -7 3 3 -2 9 -12 12 -14 6 -15 5 -6 -5z"/>
<path d="M3610 459 c0 -5 5 -7 10 -4 6 3 10 8 10 11 0 2 -4 4 -10 4 -5 0 -10
-5 -10 -11z"/>
<path d="M3645 460 c-3 -6 1 -7 9 -4 18 7 21 14 7 14 -6 0 -13 -4 -16 -10z"/>
<path d="M2033 446 c0 -15 21 -16 34 -1 4 4 2 5 -4 1 -7 -4 -13 -2 -13 3 0 6
-4 11 -8 11 -5 0 -9 -6 -9 -14z"/>
<path d="M2339 449 c-12 -7 -12 -9 1 -10 8 -1 22 0 29 1 13 1 13 -1 2 -14 -12
-14 -11 -16 3 -10 21 8 20 21 -2 33 -11 6 -24 6 -33 0z"/>
<path d="M2936 449 c5 -9 -1 -10 -20 -5 -35 9 -34 1 2 -12 24 -8 28 -7 29 9 1
11 -3 19 -8 19 -6 0 -7 -5 -3 -11z"/>
<path d="M3066 445 c-9 -26 -7 -32 5 -12 6 10 9 21 6 23 -2 3 -7 -2 -11 -11z"/>
<path d="M3268 453 c7 -3 16 -2 19 1 4 3 -2 6 -13 5 -11 0 -14 -3 -6 -6z"/>
<path d="M3310 449 c0 -5 5 -7 10 -4 6 3 10 8 10 11 0 2 -4 4 -10 4 -5 0 -10
-5 -10 -11z"/>
<path d="M3415 450 c-4 -6 -10 -8 -14 -6 -4 3 -8 -1 -8 -9 0 -10 4 -12 12 -5
7 5 14 8 17 5 2 -3 5 2 5 10 0 18 -3 19 -12 5z"/>
<path d="M1575 440 c3 -5 8 -10 11 -10 2 0 4 5 4 10 0 6 -5 10 -11 10 -5 0 -7
-4 -4 -10z"/>
<path d="M1970 442 c0 -5 7 -9 15 -9 8 0 12 4 9 9 -3 4 -9 8 -15 8 -5 0 -9 -4
-9 -8z"/>
<path d="M2090 445 c0 -8 29 -12 39 -5 9 5 4 8 -13 8 -14 0 -26 -2 -26 -3z"/>
<path d="M2235 440 c3 -6 1 -10 -6 -10 -7 0 -10 -3 -6 -6 3 -3 13 -2 22 4 16
8 16 9 1 15 -10 4 -15 3 -11 -3z"/>
<path d="M2427 432 c-24 -27 -21 -36 4 -11 11 11 19 23 16 25 -2 2 -11 -4 -20
-14z"/>
<path d="M2864 435 c11 -8 24 -15 30 -15 5 0 1 7 -10 15 -10 8 -23 14 -29 14
-5 0 -1 -6 9 -14z"/>
<path d="M3115 440 c-17 -8 -16 -8 8 -7 15 1 27 5 27 9 0 10 -9 9 -35 -2z"/>
<path d="M3220 442 c0 -4 9 -8 19 -8 11 0 17 4 15 8 -3 4 -12 8 -20 8 -8 0
-14 -4 -14 -8z"/>
<path d="M2180 436 c0 -2 7 -7 16 -10 8 -3 12 -2 9 4 -6 10 -25 14 -25 6z"/>
<path d="M3160 436 c0 -2 7 -7 16 -10 8 -3 12 -2 9 4 -6 10 -25 14 -25 6z"/>
<path d="M3270 436 c0 -2 9 -6 20 -9 11 -3 18 -1 14 4 -5 9 -34 13 -34 5z"/>
<path d="M1650 419 c0 -5 5 -7 10 -4 6 3 10 8 10 11 0 2 -4 4 -10 4 -5 0 -10
-5 -10 -11z"/>
<path d="M1830 418 c0 -4 4 -8 9 -8 6 0 12 4 15 8 3 5 -1 9 -9 9 -8 0 -15 -4
-15 -9z"/>
<path d="M2078 423 c7 -3 16 -2 19 1 4 3 -2 6 -13 5 -11 0 -14 -3 -6 -6z"/>
<path d="M2150 420 c0 -5 5 -10 10 -10 6 0 10 5 10 10 0 6 -4 10 -10 10 -5 0
-10 -4 -10 -10z"/>
<path d="M2456 422 c-2 -4 0 -14 6 -22 8 -12 9 -11 4 4 -5 13 -2 17 9 12 8 -3
15 -1 15 4 0 12 -27 13 -34 2z"/>
<path d="M2590 420 c0 -5 5 -10 10 -10 6 0 10 5 10 10 0 6 -4 10 -10 10 -5 0
-10 -4 -10 -10z"/>
<path d="M2815 421 c6 -11 4 -13 -8 -8 -10 4 -14 2 -11 -7 6 -17 32 -16 30 0
-1 8 -6 17 -11 21 -4 5 -5 2 0 -6z"/>
<path d="M2990 425 c5 -21 -1 -29 -10 -15 -7 11 -10 11 -10 2 0 -7 -4 -11 -8
-8 -5 3 -9 -1 -9 -9 0 -9 4 -11 11 -6 6 5 18 7 27 6 17 -3 20 17 5 32 -4 4 -7
4 -6 -2z"/>
<path d="M3455 420 c3 -5 8 -10 11 -10 2 0 4 5 4 10 0 6 -5 10 -11 10 -5 0 -7
-4 -4 -10z"/>
<path d="M2631 411 c-8 -5 -9 -11 -3 -15 5 -3 12 1 16 9 6 17 6 18 -13 6z"/>
<path d="M2270 406 c0 -2 7 -7 16 -10 8 -3 12 -2 9 4 -6 10 -25 14 -25 6z"/>
<path d="M2374 398 c-4 -7 -4 -10 1 -6 4 4 15 2 24 -5 14 -11 14 -10 2 6 -16
20 -18 21 -27 5z"/>
<path d="M2433 403 c4 -3 1 -13 -6 -22 -11 -14 -10 -14 5 -2 16 12 16 31 1 31
-4 0 -3 -3 0 -7z"/>
<path d="M2656 393 c-6 -14 -5 -15 5 -6 7 7 10 15 7 18 -3 3 -9 -2 -12 -12z"/>
<path d="M3215 391 c-3 -5 -2 -12 3 -15 5 -3 9 1 9 9 0 17 -3 19 -12 6z"/>
<path d="M1870 379 c0 -5 5 -7 10 -4 6 3 10 8 10 11 0 2 -4 4 -10 4 -5 0 -10
-5 -10 -11z"/>
<path d="M3135 380 c3 -5 8 -10 11 -10 2 0 4 5 4 10 0 6 -5 10 -11 10 -5 0 -7
-4 -4 -10z"/>
<path d="M3170 379 c0 -5 5 -7 10 -4 6 3 10 8 10 11 0 2 -4 4 -10 4 -5 0 -10
-5 -10 -11z"/>
<path d="M3290 385 c0 -7 30 -13 34 -7 3 4 -4 9 -15 9 -10 1 -19 0 -19 -2z"/>
<path d="M2073 365 c0 -8 4 -12 9 -9 5 3 6 10 3 15 -9 13 -12 11 -12 -6z"/>
<path d="M2115 371 c-3 -5 -2 -12 3 -15 5 -3 9 1 9 9 0 17 -3 19 -12 6z"/>
<path d="M2993 365 c0 -8 4 -12 9 -9 5 3 6 10 3 15 -9 13 -12 11 -12 -6z"/>
<path d="M2546 359 c4 -8 30 -6 38 2 3 3 -5 5 -19 5 -13 0 -22 -3 -19 -7z"/>
</g>
</svg>
